<?xml version="1.0" encoding="UTF-8" standalone="no"?>
<svg
   xmlns:dc="http://purl.org/dc/elements/1.1/"
   xmlns:cc="http://creativecommons.org/ns#"
   xmlns:rdf="http://www.w3.org/1999/02/22-rdf-syntax-ns#"
   xmlns:svg="http://www.w3.org/2000/svg"
   xmlns="http://www.w3.org/2000/svg"
   xmlns:sodipodi="http://sodipodi.sourceforge.net/DTD/sodipodi-0.dtd"
   xmlns:inkscape="http://www.inkscape.org/namespaces/inkscape"
   sodipodi:docname="mug.svg"
   inkscape:version="1.0 (4035a4fb49, 2020-05-01)"
   inkscape:export-ydpi="300.01242"
   inkscape:export-xdpi="300.01242"
   inkscape:export-filename="D:\git\CanningRoad\Operations\tuesday-tea\mug.png"
   id="svg8"
   version="1.1"
   viewBox="0 0 210 297"
   height="297mm"
   width="210mm">
  <defs
     id="defs2" />
  <sodipodi:namedview
     inkscape:window-maximized="1"
     inkscape:window-y="-6"
     inkscape:window-x="-6"
     inkscape:window-height="860"
     inkscape:window-width="1368"
     showgrid="false"
     inkscape:document-rotation="0"
     inkscape:current-layer="layer1"
     inkscape:document-units="mm"
     inkscape:cy="607.51751"
     inkscape:cx="-71.405198"
     inkscape:zoom="0.35272244"
     inkscape:pageshadow="2"
     inkscape:pageopacity="0.0"
     borderopacity="1.0"
     bordercolor="#666666"
     pagecolor="#ffffff"
     id="base" />
  <metadata
     id="metadata5">
    <rdf:RDF>
      <cc:Work
         rdf:about="">
        <dc:format>image/svg+xml</dc:format>
        <dc:type
           rdf:resource="http://purl.org/dc/dcmitype/StillImage" />
        <dc:title></dc:title>
      </cc:Work>
    </rdf:RDF>
  </metadata>
  <g
     id="layer1"
     inkscape:groupmode="layer"
     inkscape:label="Layer 1">
    <g
       style="stroke-width:1.33933"
       transform="matrix(0.74665427,0,0,0.74662912,71.016065,59.999561)"
       id="g856">
      <path
         style="fill:#ffffff;stroke:#000000;stroke-width:1.06309;stroke-linecap:round;stroke-linejoin:round;stroke-opacity:1"
         d="m -11.641667,46.037499 c 0,0 -27.507939,-15.340846 -45.768552,-5.291666 -17.895262,9.848119 -44.715201,46.823142 -16.673113,88.899997 13.500074,20.25672 35.327485,28.17252 50.871755,37.49908 15.5442707,9.32656 29.0392671,25.48672 32.7415634,30.23301 C 7.3784916,183.9083 -2.1166666,152.4 -2.1166666,152.4 c 0,0 -61.9072414,-14.85252 -65.6166654,-66.145834 -1.5875,-21.95169 13.536371,-30.024009 26.92821,-28.908846 13.428851,1.118246 19.732551,18.569575 22.284289,30.496346 1.860187,8.694472 9.5249998,7.408333 9.5249998,7.408333 z"
         id="path28"
         sodipodi:nodetypes="csssccssscc" />
      <path
         style="fill:#ffffff;stroke:#000000;stroke-width:1.06309;stroke-linecap:round;stroke-linejoin:round;stroke-opacity:1"
         d="m -15.345833,4.7624999 c 0,0 1.5875,85.1958321 10.5833331,134.4083301 8.9958332,49.2125 21.1666659,82.02083 21.1666659,82.02083 0,0 23.8125,24.87084 68.2625,24.87084 44.450004,0 65.616664,-26.45834 65.616664,-26.45834 0,0 15.34583,-48.15416 19.05,-105.30416 3.70417,-57.150001 7.9375,-109.5375001 7.9375,-109.5375001 z"
         id="path26" />
      <ellipse
         style="fill:#ffffff;stroke:#000000;stroke-width:1.06309;stroke-linecap:round;stroke-linejoin:round;stop-color:#000000"
         id="path24"
         cx="80.962502"
         cy="5.2916665"
         rx="96.308334"
         ry="14.287499" />
    </g>
  </g>
</svg>
